<svg width="41" height="40" viewBox="0 0 41 40" fill="none" xmlns="http://www.w3.org/2000/svg">
<path d="M8.83356 18.379C8.83356 11.9106 14.0774 6.66675 20.5458 6.66675C27.0143 6.66675 32.2581 11.9106 32.2581 18.379C32.2581 22.8177 26.7432 29.2118 23.2818 32.7876C21.7833 34.3354 19.3078 34.3354 17.8096 32.7876C14.3485 29.2118 8.83356 22.8177 8.83356 18.379Z" stroke="#FFBD76" stroke-width="1.5" stroke-linecap="round" stroke-linejoin="round"/>
<path d="M22.0665 24.5442C26.3784 25.78 30.3667 21.7917 29.1309 17.4798C24.819 16.244 20.8307 20.2326 22.0665 24.5442Z" stroke="#FFBD76" stroke-width="1.5" stroke-linecap="round" stroke-linejoin="round"/>
<path d="M19.1489 24.5442C14.837 25.78 10.8487 21.7917 12.0846 17.4798C16.3965 16.244 20.3848 20.2326 19.1489 24.5442Z" stroke="#FFBD76" stroke-width="1.5" stroke-linecap="round" stroke-linejoin="round"/>
</svg>
