<svg width="41" height="40" viewBox="0 0 41 40" fill="none" xmlns="http://www.w3.org/2000/svg">
<path d="M6.58092 27.0872L9.19347 24.7045C11.3372 22.7494 12.5587 19.9819 12.5587 17.0802V12.6034C12.5587 8.22032 16.112 4.66675 20.4954 4.66675C24.8785 4.66675 28.432 8.22 28.432 12.6034V17.0802C28.432 19.9816 29.6535 22.7491 31.7973 24.7045L34.4098 27.0872C34.7799 27.4245 34.9907 27.9024 34.9907 28.403C34.9907 29.5705 33.8836 30.4328 32.7573 30.1255C32.0549 29.9337 31.3666 29.6979 30.6033 30.1451C29.0432 30.9509 29.9318 32.966 28.0794 33.6603C26.2011 34.2578 25.6533 32.1221 23.9668 32.4494C22.2693 32.6887 22.448 34.8846 20.4979 34.9333C18.5471 34.8849 18.7255 32.689 17.0271 32.45C15.3402 32.1227 14.793 34.2587 12.9141 33.6615C11.0605 32.9673 11.9494 30.9519 10.3887 30.1461C9.62478 29.6985 8.9358 29.9349 8.23308 30.1264C7.10686 30.4334 6 29.5711 6 28.404V28.4033C6 27.9027 6.21082 27.4245 6.58092 27.0872Z" stroke="#FFBD76" stroke-width="1.5" stroke-linecap="round" stroke-linejoin="round"/>
<path d="M17.4086 16.8954C18.4801 16.8954 19.3488 16.0268 19.3488 14.9553C19.3488 13.8838 18.4801 13.0151 17.4086 13.0151C16.3371 13.0151 15.4685 13.8838 15.4685 14.9553C15.4685 16.0268 16.3371 16.8954 17.4086 16.8954Z" stroke="#FFBD76" stroke-width="1.5" stroke-linecap="round" stroke-linejoin="round"/>
<path d="M23.5815 16.8954C24.653 16.8954 25.5216 16.0268 25.5216 14.9553C25.5216 13.8838 24.653 13.0151 23.5815 13.0151C22.51 13.0151 21.6414 13.8838 21.6414 14.9553C21.6414 16.0268 22.51 16.8954 23.5815 16.8954Z" stroke="#FFBD76" stroke-width="1.5" stroke-linecap="round" stroke-linejoin="round"/>
</svg>
