<svg width="41" height="40" viewBox="0 0 41 40" fill="none" xmlns="http://www.w3.org/2000/svg">
<path d="M20.4714 5L7.38306 27.6697H33.5598L20.4714 5Z" stroke="#FFBD76" stroke-width="1.5" stroke-linecap="round" stroke-linejoin="round"/>
<path d="M20.4673 30.6702V36.6667" stroke="#FFBD76" stroke-width="1.5" stroke-linecap="round" stroke-linejoin="round"/>
<path d="M22.7349 30.6702V33.5435" stroke="#FFBD76" stroke-width="1.5" stroke-linecap="round" stroke-linejoin="round"/>
<path d="M18.208 30.6702V33.5435" stroke="#FFBD76" stroke-width="1.5" stroke-linecap="round" stroke-linejoin="round"/>
<path d="M29.9163 14.8098L35.1095 11.8115" stroke="#FFBD76" stroke-width="1.5" stroke-linecap="round" stroke-linejoin="round"/>
<path d="M28.7825 12.8461L31.271 11.4094" stroke="#FFBD76" stroke-width="1.5" stroke-linecap="round" stroke-linejoin="round"/>
<path d="M31.0459 16.7663L33.5345 15.3296" stroke="#FFBD76" stroke-width="1.5" stroke-linecap="round" stroke-linejoin="round"/>
<path d="M11.0265 14.8098L5.83325 11.8115" stroke="#FFBD76" stroke-width="1.5" stroke-linecap="round" stroke-linejoin="round"/>
<path d="M12.1602 12.8461L9.67163 11.4094" stroke="#FFBD76" stroke-width="1.5" stroke-linecap="round" stroke-linejoin="round"/>
<path d="M9.89676 16.7663L7.4082 15.3296" stroke="#FFBD76" stroke-width="1.5" stroke-linecap="round" stroke-linejoin="round"/>
<path d="M25.1178 19.5245L26.0666 20.3671L25.1178 21.2098C22.4675 23.564 18.4754 23.564 15.825 21.2098L14.8762 20.3671L15.825 19.5245C18.4754 17.1702 22.4675 17.1702 25.1178 19.5245Z" stroke="#FFBD76" stroke-width="1.5" stroke-linecap="round" stroke-linejoin="round"/>
<path d="M20.4713 22.9755C21.9119 22.9755 23.0798 21.8077 23.0798 20.367C23.0798 18.9264 21.9119 17.7585 20.4713 17.7585C19.0307 17.7585 17.8628 18.9264 17.8628 20.367C17.8628 21.8077 19.0307 22.9755 20.4713 22.9755Z" stroke="#FFBD76" stroke-width="1.5" stroke-linecap="round" stroke-linejoin="round"/>
<path d="M20.4713 20.9917C20.8163 20.9917 21.096 20.712 21.096 20.3671C21.096 20.0221 20.8163 19.7424 20.4713 19.7424C20.1263 19.7424 19.8467 20.0221 19.8467 20.3671C19.8467 20.712 20.1263 20.9917 20.4713 20.9917Z" fill="#FFBD76"/>
</svg>
