<svg width="19" height="18" viewBox="0 0 19 18" fill="none" xmlns="http://www.w3.org/2000/svg">
<path d="M16.021 3.375H3.646C3.33534 3.375 3.0835 3.62684 3.0835 3.9375V14.0625C3.0835 14.3732 3.33534 14.625 3.646 14.625H16.021C16.3317 14.625 16.5835 14.3732 16.5835 14.0625V3.9375C16.5835 3.62684 16.3317 3.375 16.021 3.375Z" stroke="#FE805D" stroke-width="1.5" stroke-linecap="round" stroke-linejoin="round"/>
<path d="M3.0835 5.625H16.5835" stroke="#FE805D" stroke-width="1.5" stroke-linecap="round" stroke-linejoin="round"/>
<path d="M12.646 7.875C12.646 8.62092 12.3497 9.33629 11.8222 9.86374C11.2948 10.3912 10.5794 10.6875 9.8335 10.6875C9.08757 10.6875 8.3722 10.3912 7.84476 9.86374C7.31731 9.33629 7.021 8.62092 7.021 7.875" stroke="#FE805D" stroke-width="1.5" stroke-linecap="round" stroke-linejoin="round"/>
</svg>
