<svg width="21" height="20" viewBox="0 0 21 20" fill="none" xmlns="http://www.w3.org/2000/svg">
<path d="M20.4804 5.88005C20.4336 4.81738 20.2617 4.0868 20.0156 3.45374C19.7616 2.78176 19.3709 2.18014 18.859 1.68002C18.3589 1.1721 17.7533 0.777435 17.0891 0.527447C16.4524 0.281274 15.7256 0.109427 14.663 0.0625732C13.5923 0.0117516 13.2525 0 10.5371 0C7.82172 0 7.48185 0.0117516 6.4152 0.0586052C5.35253 0.105459 4.62195 0.277459 3.98904 0.523479C3.31692 0.777435 2.7153 1.16814 2.21517 1.68002C1.70726 2.18014 1.31274 2.78573 1.0626 3.44992C0.81643 4.0868 0.644583 4.81341 0.597729 5.87609C0.546908 6.9467 0.535156 7.28658 0.535156 10.002C0.535156 12.7173 0.546908 13.0572 0.593761 14.1239C0.640615 15.1865 0.812615 15.9171 1.05879 16.5502C1.31274 17.2221 1.70726 17.8238 2.21517 18.3239C2.7153 18.8318 3.32088 19.2265 3.98507 19.4765C4.62195 19.7226 5.34856 19.8945 6.41139 19.9413C7.47788 19.9883 7.81791 19.9999 10.5333 19.9999C13.2486 19.9999 13.5885 19.9883 14.6552 19.9413C15.7178 19.8945 16.4484 19.7226 17.0813 19.4765C18.4254 18.9568 19.4881 17.8941 20.0078 16.5502C20.2538 15.9133 20.4258 15.1865 20.4726 14.1239C20.5195 13.0572 20.5312 12.7173 20.5312 10.002C20.5312 7.28658 20.5273 6.9467 20.4804 5.88005ZM18.6794 14.0457C18.6364 15.0225 18.4723 15.5499 18.3355 15.9015C17.9995 16.7728 17.308 17.4643 16.4367 17.8004C16.085 17.9372 15.5538 18.1012 14.5808 18.1441C13.526 18.1911 13.2096 18.2027 10.5411 18.2027C7.87255 18.2027 7.5522 18.1911 6.50113 18.1441C5.52437 18.1012 4.99693 17.9372 4.6453 17.8004C4.21171 17.6402 3.81704 17.3862 3.4967 17.0541C3.1646 16.7298 2.91065 16.3391 2.7504 15.9055C2.61365 15.5539 2.44959 15.0225 2.4067 14.0497C2.3597 12.9948 2.3481 12.6783 2.3481 10.0097C2.3481 7.34122 2.3597 7.02087 2.4067 5.96995C2.44959 4.99319 2.61365 4.46575 2.7504 4.11412C2.91065 3.68038 3.1646 3.28586 3.50067 2.96536C3.82483 2.63327 4.21553 2.37931 4.64927 2.21921C5.0009 2.08247 5.53231 1.9184 6.50509 1.87537C7.55999 1.82851 7.87651 1.81676 10.5449 1.81676C13.2174 1.81676 13.5337 1.82851 14.5848 1.87537C15.5616 1.9184 16.089 2.08247 16.4406 2.21921C16.8742 2.37931 17.2689 2.63327 17.5892 2.96536C17.9213 3.28967 18.1753 3.68038 18.3355 4.11412C18.4723 4.46575 18.6364 4.99701 18.6794 5.96995C18.7262 7.02484 18.738 7.34122 18.738 10.0097C18.738 12.6783 18.7262 12.9908 18.6794 14.0457Z" fill="#FE805D"/>
<path d="M10.5371 4.86426C7.70074 4.86426 5.39941 7.16543 5.39941 10.002C5.39941 12.8385 7.70074 15.1397 10.5371 15.1397C13.3737 15.1397 15.6749 12.8385 15.6749 10.002C15.6749 7.16543 13.3737 4.86426 10.5371 4.86426ZM10.5371 13.3347C8.69702 13.3347 7.20442 11.8422 7.20442 10.002C7.20442 8.16172 8.69702 6.66927 10.5371 6.66927C12.3774 6.66927 13.8698 8.16172 13.8698 10.002C13.8698 11.8422 12.3774 13.3347 10.5371 13.3347Z" fill="#FE805D"/>
<path d="M17.0777 4.6611C17.0777 5.32346 16.5407 5.86052 15.8781 5.86052C15.2158 5.86052 14.6787 5.32346 14.6787 4.6611C14.6787 3.99858 15.2158 3.46167 15.8781 3.46167C16.5407 3.46167 17.0777 3.99858 17.0777 4.6611Z" fill="#FE805D"/>
</svg>
