<svg width="41" height="40" viewBox="0 0 41 40" fill="none" xmlns="http://www.w3.org/2000/svg">
<path d="M9.54785 21.9975V19.3344C9.54785 14.9373 13.1149 11.3699 17.5123 11.3699C18.9855 11.3699 20.3966 11.775 21.6121 12.5062C22.8277 13.2373 23.8505 14.2911 24.5417 15.5888L25.355 17.116C25.8875 18.116 27.208 18.3684 28.075 17.6373C28.4772 17.2915 28.7011 16.7931 28.7011 16.2802C28.7011 16.1016 28.6755 15.9204 28.619 15.7446L27.2448 11.3871C26.7432 9.80054 27.6358 8.11183 29.2252 7.63024C29.5113 7.54248 29.8033 7.5 30.095 7.5C30.7865 7.5 31.472 7.74361 32.0161 8.20272L32.934 8.97352C33.4781 9.43263 33.2682 10.3165 32.577 10.478L30.9395 10.8662L32.2116 14.6034C33.0674 17.1166 32.2741 19.896 30.2168 21.5762L30.1319 21.6443" stroke="#FFBD76" stroke-width="1.5" stroke-linecap="round" stroke-linejoin="round"/>
<path d="M5.3335 19.949C7.11871 22.7062 11.1523 22.7059 12.9369 19.949C14.7218 22.7059 18.7554 22.7062 20.5403 19.9494V19.9487L20.5425 19.9519C22.3277 22.7078 26.3604 22.7074 28.1453 19.9512L28.1469 19.9487L28.1512 19.9556C29.9364 22.7103 33.9675 22.7103 35.7528 19.9556L35.7571 19.9487" stroke="#FFBD76" stroke-width="1.5" stroke-linecap="round" stroke-linejoin="round"/>
<path d="M9.13525 25.0511C10.9202 27.8079 14.9538 27.8082 16.7387 25.0514V25.0508L16.7408 25.0539C18.5261 27.8098 22.5587 27.8095 24.3436 25.0533L24.3452 25.0508L24.3496 25.0577C26.1348 27.8123 30.1659 27.8123 31.9511 25.0577L31.9555 25.0508" stroke="#FFBD76" stroke-width="1.5" stroke-linecap="round" stroke-linejoin="round"/>
<path d="M12.9385 30.4366C14.7234 33.1934 18.757 33.1937 20.5419 30.4369V30.4363L20.5441 30.4394C22.3293 33.1953 26.362 33.195 28.1469 30.4388L28.1484 30.4363L28.1528 30.4432" stroke="#FFBD76" stroke-width="1.5" stroke-linecap="round" stroke-linejoin="round"/>
</svg>
