<svg width="21" height="20" viewBox="0 0 21 20" fill="none" xmlns="http://www.w3.org/2000/svg">
<path d="M20.5 3.79875C19.7563 4.125 18.9637 4.34125 18.1375 4.44625C18.9875 3.93875 19.6363 3.14125 19.9412 2.18C19.1488 2.6525 18.2738 2.98625 17.3412 3.1725C16.5887 2.37125 15.5162 1.875 14.3462 1.875C12.0763 1.875 10.2487 3.7175 10.2487 5.97625C10.2487 6.30125 10.2762 6.61375 10.3438 6.91125C6.935 6.745 3.91875 5.11125 1.8925 2.6225C1.53875 3.23625 1.33125 3.93875 1.33125 4.695C1.33125 6.115 2.0625 7.37375 3.1525 8.1025C2.49375 8.09 1.8475 7.89875 1.3 7.5975C1.3 7.61 1.3 7.62625 1.3 7.6425C1.3 9.635 2.72125 11.29 4.585 11.6712C4.25125 11.7625 3.8875 11.8062 3.51 11.8062C3.2475 11.8062 2.9825 11.7913 2.73375 11.7362C3.265 13.36 4.7725 14.5538 6.565 14.5925C5.17 15.6838 3.39875 16.3412 1.48125 16.3412C1.145 16.3412 0.8225 16.3263 0.5 16.285C2.31625 17.4563 4.46875 18.125 6.79 18.125C14.335 18.125 18.46 11.875 18.46 6.4575C18.46 6.27625 18.4538 6.10125 18.445 5.9275C19.2588 5.35 19.9425 4.62875 20.5 3.79875Z" fill="#FE805D"/>
</svg>
